UNKNOWN
version=1
nRows=22
nColumns=13
inDegrees=no
endheader
time	time	pelvis_tilt	hip_flexion_r	knee_angle_r	ankle_angle_r	pelvis_tilt	hip_flexion_r	knee_angle_r	ankle_angle_r	hip_flexion_l	knee_angle_l	ankle_angle_l
      0.00000000	      4.37000000	      2.91316418	    -16.96993671	    -50.89066770	    -29.53857254	      2.91316418	    -16.96993671	    -50.89066770	    -29.53857254	      2.36967988	    -16.37484035	     -0.79737447
      1.00000000	      4.38000000	      2.74750784	    -15.77795861	    -52.36019710	    -27.62548360	      2.74750784	    -15.77795861	    -52.36019710	    -27.62548360	      1.53146698	    -16.07687920	     -0.64390808
      2.00000000	      4.39000000	      2.45548712	    -14.10171132	    -54.16432137	    -25.09366938	      2.45548712	    -14.10171132	    -54.16432137	    -25.09366938	      0.47251709	    -15.70584145	     -0.35386192
      3.00000000	      4.40000000	      2.08766305	    -12.09741806	    -55.99437150	    -22.27022440	      2.08766305	    -12.09741806	    -55.99437150	    -22.27022440	     -0.66997265	    -15.25203964	     -0.04255774
      4.00000000	      4.41000000	      1.73382181	    -10.00898830	    -57.60165332	    -19.57908671	      1.73382181	    -10.00898830	    -57.60165332	    -19.57908671	     -1.92931904	    -14.64874830	      0.23303313
      5.00000000	      4.42000000	      1.37393623	     -7.83027058	    -58.88240028	    -17.26843098	      1.37393623	     -7.83027058	    -58.88240028	    -17.26843098	     -3.09525908	    -13.98947664	      0.49301388
      6.00000000	      4.43000000	      1.07188002	     -5.68359098	    -59.80959985	    -15.43189448	      1.07188002	     -5.68359098	    -59.80959985	    -15.43189448	     -4.26993757	    -13.21733870	      0.70783660
      7.00000000	      4.44000000	      0.82610846	     -3.61914757	    -60.37794937	    -13.98689155	      0.82610846	     -3.61914757	    -60.37794937	    -13.98689155	     -5.46947323	    -12.34986479	      0.93920711
      8.00000000	      4.45000000	      0.54280807	     -1.77489326	    -60.53825648	    -12.76634596	      0.54280807	     -1.77489326	    -60.53825648	    -12.76634596	     -6.75943913	    -11.43374759	      1.21127140
      9.00000000	      4.46000000	      0.40988868	      0.15276582	    -60.45149612	    -11.53252730	      0.40988868	      0.15276582	    -60.45149612	    -11.53252730	     -7.86892545	    -10.53980685	      1.42779008
     10.00000000	      4.47000000	      0.22322295	      1.82075691	    -59.96818656	    -10.19123271	      0.22322295	      1.82075691	    -59.96818656	    -10.19123271	     -9.04820199	     -9.68612713	      1.69738244
     11.00000000	      4.48000000	      0.02985785	      3.30433768	    -59.13102160	     -8.70649201	      0.02985785	      3.30433768	    -59.13102160	     -8.70649201	    -10.23639600	     -8.88867149	      2.00286578
     12.00000000	      4.49000000	     -0.11588545	      4.61112088	    -57.96093165	     -7.06842676	     -0.11588545	      4.61112088	    -57.96093165	     -7.06842676	    -11.42180144	     -8.13805738	      2.23962417
     13.00000000	      4.50000000	     -0.23207056	      5.77912109	    -56.47082394	     -5.41022932	     -0.23207056	      5.77912109	    -56.47082394	     -5.41022932	    -12.57604802	     -7.46647397	      2.49799321
     14.00000000	      4.51000000	     -0.31444738	      6.79127957	    -54.65581945	     -3.92594866	     -0.31444738	      6.79127957	    -54.65581945	     -3.92594866	    -13.74070871	     -6.82584015	      2.70440250
     15.00000000	      4.52000000	     -0.34056200	      7.69627118	    -52.55157694	     -2.68631020	     -0.34056200	      7.69627118	    -52.55157694	     -2.68631020	    -14.86565174	     -6.25385971	      2.91273738
     16.00000000	      4.53000000	     -0.28150944	      8.52174548	    -50.18911901	     -1.74547542	     -0.28150944	      8.52174548	    -50.18911901	     -1.74547542	    -15.93977548	     -5.73922739	      3.11945672
     17.00000000	      4.54000000	     -0.16631099	      9.20652086	    -47.57130307	     -1.04065085	     -0.16631099	      9.20652086	    -47.57130307	     -1.04065085	    -17.02436843	     -5.27479952	      3.37075836
     18.00000000	      4.55000000	     -0.03557722	      9.70870066	    -44.68849543	     -0.57981351	     -0.03557722	      9.70870066	    -44.68849543	     -0.57981351	    -18.18960835	     -4.80754962	      3.60372109
     19.00000000	      4.56000000	      0.19280849	     10.15821781	    -41.61502059	     -0.16900182	      0.19280849	     10.15821781	    -41.61502059	     -0.16900182	    -19.31200612	     -4.38574427	      3.88337556
     20.00000000	      4.57000000	      0.43256091	     10.48345838	    -38.30726148	      0.20078628	      0.43256091	     10.48345838	    -38.30726148	      0.20078628	    -20.46334294	     -3.97207060	      4.19412284
     21.00000000	      4.58000000	      0.73641141	     10.81781658	    -34.81992423	      0.64458863	      0.73641141	     10.81781658	    -34.81992423	      0.64458863	    -21.51695803	     -3.59228503	      4.54355211
